<svg xmlns="http://www.w3.org/2000/svg" xmlns:xlink="http://www.w3.org/1999/xlink" width="79.641" height="50.65" viewBox="0 0 79.641 50.65"><defs><style>.a{fill:#1f9cb3;}.b{clip-path:url(#a);}.c{clip-path:url(#b);}</style><clipPath id="a"><path class="a" d="M389.059,152.331a11.623,11.623,0,0,1-5.176,7.321,17.643,17.643,0,0,1-6.059,2.461,23.06,23.06,0,0,1-6.039.552,19.413,19.413,0,0,1-4.388-.224,17.835,17.835,0,0,1-7.851-2.417,8.364,8.364,0,0,1-3.693-5.139,13.893,13.893,0,0,1,0-6.244,19.5,19.5,0,0,1,4.489-8.92,17.94,17.94,0,0,1,5.7-4.447,15.109,15.109,0,0,1,5.1-1.432A16.652,16.652,0,0,1,379.037,135a16.034,16.034,0,0,1,8.308,7.012,15.417,15.417,0,0,1,1.566,3.891,13.625,13.625,0,0,1,.145,6.43Zm4.931-7.319a21.478,21.478,0,0,0-2.961-7.045,20.256,20.256,0,0,0-10.951-8.088,29.563,29.563,0,0,0-5.892-1.245,17.909,17.909,0,0,0-6.8.376,16.053,16.053,0,0,0-5.011,2.365,29.668,29.668,0,0,0-7.269,7.587c-1.543,2.17-2.993,4.407-4.53,6.582a7.3,7.3,0,0,1-2.169,2.219,1.265,1.265,0,0,1-1.2.139,4.345,4.345,0,0,1-1.2-.7c-1.342-1.185-1.859-2.824-2.489-4.41-.286-.721-.343-1.494-.6-2.221a4.644,4.644,0,0,1-.156-2.341,12.11,12.11,0,0,1,2.065-4.473c1.19-1.834,2.473-3.61,3.487-5.555a17.351,17.351,0,0,0,1.653-4.657,14.1,14.1,0,0,0,.224-3.186,11.923,11.923,0,0,0-.271-1.889c-.026-.136-.053-.459-.328-.183a18.614,18.614,0,0,1-3.131,2.508,3.52,3.52,0,0,1-1.663.765c-1.006.039-2.013.164-3.02.177a9.933,9.933,0,0,0-4.772,1.342,11.058,11.058,0,0,0-3.586,3.355.8.8,0,0,1-.993.375,25.307,25.307,0,0,0-3.9-.6,12.727,12.727,0,0,0-2.785-.035,10,10,0,0,0-3.579.956,7.475,7.475,0,0,0-1.879,1.486,1.944,1.944,0,0,1-1.493.7,5.665,5.665,0,0,1-3.115-.975c-.128-.082-.238-.2-.407-.121-.216.1-.112.288-.1.448a4.515,4.515,0,0,0,.4,1.055,7.592,7.592,0,0,0,2.393,3.34,22.683,22.683,0,0,0,4.287,2.836c1.924,1.02,3.914,1.913,5.855,2.887a28.128,28.128,0,0,1,5.274,3.288,9.561,9.561,0,0,1,2.724,3.355,17.9,17.9,0,0,1,1.353,4.346,15.561,15.561,0,0,1,.379,2.134,19.519,19.519,0,0,0,.231,3.168,13.731,13.731,0,0,0,.928,3.275,9.356,9.356,0,0,0,3.705,3.675,29.735,29.735,0,0,0,5.28,2.545c1.731.671,3.489,1.23,5.272,1.728,1.807.5,3.639.907,5.48,1.292,1.974.414,3.968.7,5.964.946a23.7,23.7,0,0,0,4.613.244c1.861-.016,3.337-.053,4.818-.178,1.442-.122,2.872-.308,4.295-.54a27.538,27.538,0,0,0,4.941-1.319,19.364,19.364,0,0,0,6.622-3.831,15.128,15.128,0,0,0,4.78-11.154A25.936,25.936,0,0,0,393.991,145.012Z" transform="translate(-315.138 -118.174)"/></clipPath><clipPath id="b"><path class="a" d="M390.206,144.216a5.906,5.906,0,0,0-4.614,2.41,14.73,14.73,0,0,0-1.118,1.824,8.921,8.921,0,0,0-2.091-2.908,5.33,5.33,0,0,0-7.887.713,7.83,7.83,0,0,0-1.509,4.264,6.293,6.293,0,0,0,1.173,4.474,12.9,12.9,0,0,0,3.973,3.2,16.57,16.57,0,0,1,6.375,5.928c.167-.267.292-.485.432-.69a17.855,17.855,0,0,1,5.093-4.809,30.281,30.281,0,0,0,3.8-2.631,6.091,6.091,0,0,0,2.089-3.476,8.626,8.626,0,0,0-.6-4.9A5.481,5.481,0,0,0,390.206,144.216Z" transform="translate(-372.959 -144.125)"/></clipPath></defs><g transform="translate(-315.138 -118.174)"><g transform="translate(315.138 118.174)"><path class="a" d="M389.059,152.331a11.623,11.623,0,0,1-5.176,7.321,17.643,17.643,0,0,1-6.059,2.461,23.06,23.06,0,0,1-6.039.552,19.413,19.413,0,0,1-4.388-.224,17.835,17.835,0,0,1-7.851-2.417,8.364,8.364,0,0,1-3.693-5.139,13.893,13.893,0,0,1,0-6.244,19.5,19.5,0,0,1,4.489-8.92,17.94,17.94,0,0,1,5.7-4.447,15.109,15.109,0,0,1,5.1-1.432A16.652,16.652,0,0,1,379.037,135a16.034,16.034,0,0,1,8.308,7.012,15.417,15.417,0,0,1,1.566,3.891,13.625,13.625,0,0,1,.145,6.43Zm4.931-7.319a21.478,21.478,0,0,0-2.961-7.045,20.256,20.256,0,0,0-10.951-8.088,29.563,29.563,0,0,0-5.892-1.245,17.909,17.909,0,0,0-6.8.376,16.053,16.053,0,0,0-5.011,2.365,29.668,29.668,0,0,0-7.269,7.587c-1.543,2.17-2.993,4.407-4.53,6.582a7.3,7.3,0,0,1-2.169,2.219,1.265,1.265,0,0,1-1.2.139,4.345,4.345,0,0,1-1.2-.7c-1.342-1.185-1.859-2.824-2.489-4.41-.286-.721-.343-1.494-.6-2.221a4.644,4.644,0,0,1-.156-2.341,12.11,12.11,0,0,1,2.065-4.473c1.19-1.834,2.473-3.61,3.487-5.555a17.351,17.351,0,0,0,1.653-4.657,14.1,14.1,0,0,0,.224-3.186,11.923,11.923,0,0,0-.271-1.889c-.026-.136-.053-.459-.328-.183a18.614,18.614,0,0,1-3.131,2.508,3.52,3.52,0,0,1-1.663.765c-1.006.039-2.013.164-3.02.177a9.933,9.933,0,0,0-4.772,1.342,11.058,11.058,0,0,0-3.586,3.355.8.8,0,0,1-.993.375,25.307,25.307,0,0,0-3.9-.6,12.727,12.727,0,0,0-2.785-.035,10,10,0,0,0-3.579.956,7.475,7.475,0,0,0-1.879,1.486,1.944,1.944,0,0,1-1.493.7,5.665,5.665,0,0,1-3.115-.975c-.128-.082-.238-.2-.407-.121-.216.1-.112.288-.1.448a4.515,4.515,0,0,0,.4,1.055,7.592,7.592,0,0,0,2.393,3.34,22.683,22.683,0,0,0,4.287,2.836c1.924,1.02,3.914,1.913,5.855,2.887a28.128,28.128,0,0,1,5.274,3.288,9.561,9.561,0,0,1,2.724,3.355,17.9,17.9,0,0,1,1.353,4.346,15.561,15.561,0,0,1,.379,2.134,19.519,19.519,0,0,0,.231,3.168,13.731,13.731,0,0,0,.928,3.275,9.356,9.356,0,0,0,3.705,3.675,29.735,29.735,0,0,0,5.28,2.545c1.731.671,3.489,1.23,5.272,1.728,1.807.5,3.639.907,5.48,1.292,1.974.414,3.968.7,5.964.946a23.7,23.7,0,0,0,4.613.244c1.861-.016,3.337-.053,4.818-.178,1.442-.122,2.872-.308,4.295-.54a27.538,27.538,0,0,0,4.941-1.319,19.364,19.364,0,0,0,6.622-3.831,15.128,15.128,0,0,0,4.78-11.154A25.936,25.936,0,0,0,393.991,145.012Z" transform="translate(-315.138 -118.174)"/><g class="b"><rect class="a" width="84.631" height="55.641" transform="translate(-2.495 -2.495)"/></g><g transform="translate(45.885 20.594)"><path class="a" d="M390.206,144.216a5.906,5.906,0,0,0-4.614,2.41,14.73,14.73,0,0,0-1.118,1.824,8.921,8.921,0,0,0-2.091-2.908,5.33,5.33,0,0,0-7.887.713,7.83,7.83,0,0,0-1.509,4.264,6.293,6.293,0,0,0,1.173,4.474,12.9,12.9,0,0,0,3.973,3.2,16.57,16.57,0,0,1,6.375,5.928c.167-.267.292-.485.432-.69a17.855,17.855,0,0,1,5.093-4.809,30.281,30.281,0,0,0,3.8-2.631,6.091,6.091,0,0,0,2.089-3.476,8.626,8.626,0,0,0-.6-4.9A5.481,5.481,0,0,0,390.206,144.216Z" transform="translate(-372.959 -144.125)"/><g class="c"><rect class="a" width="28.076" height="24.983" transform="translate(-2.495 -2.495)"/></g></g></g></g></svg>